<mxfile host="app.diagrams.net" agent="Mozilla/5.0 (Windows NT 10.0; Win64; x64) AppleWebKit/537.36 (KHTML, like Gecko) Chrome/131.0.0.0 Safari/537.36" version="25.0.3">
  <diagram name="第 1 页" id="N8LCglUk2VuPj1pe6zSW">
    <mxGraphModel dx="1195" dy="643" grid="1" gridSize="10" guides="1" tooltips="1" connect="1" arrows="1" fold="1" page="1" pageScale="1" pageWidth="827" pageHeight="1169" math="0" shadow="0">
      <root>
        <mxCell id="0" />
        <mxCell id="1" parent="0" />
        <mxCell id="AII6CxEF3rXrhjEriEIV-20" value="" style="group" vertex="1" connectable="0" parent="1">
          <mxGeometry x="120" y="240" width="200" height="240" as="geometry" />
        </mxCell>
        <mxCell id="AII6CxEF3rXrhjEriEIV-5" value="" style="swimlane;startSize=0;" vertex="1" parent="AII6CxEF3rXrhjEriEIV-20">
          <mxGeometry width="200" height="240" as="geometry">
            <mxRectangle x="120" y="240" width="50" height="40" as="alternateBounds" />
          </mxGeometry>
        </mxCell>
        <mxCell id="AII6CxEF3rXrhjEriEIV-7" value="Destination" style="text;html=1;align=center;verticalAlign=middle;whiteSpace=wrap;rounded=0;" vertex="1" parent="AII6CxEF3rXrhjEriEIV-5">
          <mxGeometry x="70" width="60" height="40" as="geometry" />
        </mxCell>
        <mxCell id="AII6CxEF3rXrhjEriEIV-9" value="Sequence number" style="text;html=1;align=center;verticalAlign=middle;whiteSpace=wrap;rounded=0;" vertex="1" parent="AII6CxEF3rXrhjEriEIV-5">
          <mxGeometry x="45" y="40" width="110" height="40" as="geometry" />
        </mxCell>
        <mxCell id="AII6CxEF3rXrhjEriEIV-10" value="" style="endArrow=none;html=1;rounded=0;entryX=0.999;entryY=0.195;entryDx=0;entryDy=0;entryPerimeter=0;exitX=0;exitY=0.333;exitDx=0;exitDy=0;exitPerimeter=0;" edge="1" parent="AII6CxEF3rXrhjEriEIV-5" source="AII6CxEF3rXrhjEriEIV-5">
          <mxGeometry width="50" height="50" relative="1" as="geometry">
            <mxPoint x="1" y="80" as="sourcePoint" />
            <mxPoint x="200" y="80" as="targetPoint" />
          </mxGeometry>
        </mxCell>
        <mxCell id="AII6CxEF3rXrhjEriEIV-11" value="Advertised hop count" style="text;html=1;align=center;verticalAlign=middle;whiteSpace=wrap;rounded=0;" vertex="1" parent="AII6CxEF3rXrhjEriEIV-5">
          <mxGeometry x="35" y="80" width="130" height="40" as="geometry" />
        </mxCell>
        <mxCell id="AII6CxEF3rXrhjEriEIV-8" value="" style="endArrow=none;html=1;rounded=0;exitX=0;exitY=0.167;exitDx=0;exitDy=0;exitPerimeter=0;entryX=0.999;entryY=0.195;entryDx=0;entryDy=0;entryPerimeter=0;" edge="1" parent="AII6CxEF3rXrhjEriEIV-5" source="AII6CxEF3rXrhjEriEIV-5">
          <mxGeometry width="50" height="50" relative="1" as="geometry">
            <mxPoint x="0.8000000000000256" y="40.71999999999997" as="sourcePoint" />
            <mxPoint x="200.00000000000006" y="40.00000000000006" as="targetPoint" />
          </mxGeometry>
        </mxCell>
        <mxCell id="AII6CxEF3rXrhjEriEIV-16" value="route list&lt;div&gt;{(nexthop1,hopcount1),&lt;/div&gt;&lt;div&gt;&lt;span style=&quot;background-color: initial;&quot;&gt;(nexthop2,hopcount2),...&lt;/span&gt;}&lt;/div&gt;" style="text;html=1;align=center;verticalAlign=middle;whiteSpace=wrap;rounded=0;" vertex="1" parent="AII6CxEF3rXrhjEriEIV-5">
          <mxGeometry x="20" y="120" width="160" height="80" as="geometry" />
        </mxCell>
        <mxCell id="AII6CxEF3rXrhjEriEIV-18" value="Expiration time" style="text;html=1;align=center;verticalAlign=middle;whiteSpace=wrap;rounded=0;" vertex="1" parent="AII6CxEF3rXrhjEriEIV-5">
          <mxGeometry x="45" y="200" width="110" height="40" as="geometry" />
        </mxCell>
        <mxCell id="AII6CxEF3rXrhjEriEIV-14" value="" style="endArrow=none;html=1;rounded=0;exitX=0;exitY=0.5;exitDx=0;exitDy=0;entryX=1;entryY=0.5;entryDx=0;entryDy=0;" edge="1" parent="AII6CxEF3rXrhjEriEIV-20" source="AII6CxEF3rXrhjEriEIV-5" target="AII6CxEF3rXrhjEriEIV-5">
          <mxGeometry width="50" height="50" relative="1" as="geometry">
            <mxPoint x="30" y="110" as="sourcePoint" />
            <mxPoint x="80" y="60" as="targetPoint" />
          </mxGeometry>
        </mxCell>
        <mxCell id="AII6CxEF3rXrhjEriEIV-17" value="" style="endArrow=none;html=1;rounded=0;exitX=0.003;exitY=0.834;exitDx=0;exitDy=0;exitPerimeter=0;entryX=1.002;entryY=0.832;entryDx=0;entryDy=0;entryPerimeter=0;" edge="1" parent="AII6CxEF3rXrhjEriEIV-20" source="AII6CxEF3rXrhjEriEIV-5" target="AII6CxEF3rXrhjEriEIV-5">
          <mxGeometry width="50" height="50" relative="1" as="geometry">
            <mxPoint x="30" y="110" as="sourcePoint" />
            <mxPoint x="80" y="60" as="targetPoint" />
          </mxGeometry>
        </mxCell>
        <mxCell id="AII6CxEF3rXrhjEriEIV-21" value="" style="swimlane;startSize=0;" vertex="1" parent="1">
          <mxGeometry x="400" y="240" width="200" height="240" as="geometry">
            <mxRectangle x="120" y="240" width="50" height="40" as="alternateBounds" />
          </mxGeometry>
        </mxCell>
        <mxCell id="AII6CxEF3rXrhjEriEIV-22" value="Destination" style="text;html=1;align=center;verticalAlign=middle;whiteSpace=wrap;rounded=0;" vertex="1" parent="AII6CxEF3rXrhjEriEIV-21">
          <mxGeometry x="70" width="60" height="40" as="geometry" />
        </mxCell>
        <mxCell id="AII6CxEF3rXrhjEriEIV-23" value="Sequence number" style="text;html=1;align=center;verticalAlign=middle;whiteSpace=wrap;rounded=0;" vertex="1" parent="AII6CxEF3rXrhjEriEIV-21">
          <mxGeometry x="45" y="40" width="110" height="40" as="geometry" />
        </mxCell>
        <mxCell id="AII6CxEF3rXrhjEriEIV-24" value="" style="endArrow=none;html=1;rounded=0;entryX=0.999;entryY=0.195;entryDx=0;entryDy=0;entryPerimeter=0;exitX=0;exitY=0.333;exitDx=0;exitDy=0;exitPerimeter=0;" edge="1" parent="AII6CxEF3rXrhjEriEIV-21" source="AII6CxEF3rXrhjEriEIV-21">
          <mxGeometry width="50" height="50" relative="1" as="geometry">
            <mxPoint x="1" y="80" as="sourcePoint" />
            <mxPoint x="200" y="80" as="targetPoint" />
          </mxGeometry>
        </mxCell>
        <mxCell id="AII6CxEF3rXrhjEriEIV-25" value="Advertised hop count" style="text;html=1;align=center;verticalAlign=middle;whiteSpace=wrap;rounded=0;" vertex="1" parent="AII6CxEF3rXrhjEriEIV-21">
          <mxGeometry x="35" y="80" width="130" height="40" as="geometry" />
        </mxCell>
        <mxCell id="AII6CxEF3rXrhjEriEIV-26" value="" style="endArrow=none;html=1;rounded=0;exitX=0;exitY=0.167;exitDx=0;exitDy=0;exitPerimeter=0;entryX=0.999;entryY=0.195;entryDx=0;entryDy=0;entryPerimeter=0;" edge="1" parent="AII6CxEF3rXrhjEriEIV-21" source="AII6CxEF3rXrhjEriEIV-21">
          <mxGeometry width="50" height="50" relative="1" as="geometry">
            <mxPoint x="0.8000000000000256" y="40.71999999999997" as="sourcePoint" />
            <mxPoint x="200.00000000000006" y="40.00000000000006" as="targetPoint" />
          </mxGeometry>
        </mxCell>
        <mxCell id="AII6CxEF3rXrhjEriEIV-27" value="route list&lt;div&gt;{(nexthop1,hopcount1,Auth),&lt;/div&gt;&lt;div&gt;&lt;span style=&quot;background-color: initial;&quot;&gt;(nexthop2,hopcount2,Auth),...&lt;/span&gt;}&lt;/div&gt;" style="text;html=1;align=center;verticalAlign=middle;whiteSpace=wrap;rounded=0;" vertex="1" parent="AII6CxEF3rXrhjEriEIV-21">
          <mxGeometry x="20" y="120" width="160" height="80" as="geometry" />
        </mxCell>
        <mxCell id="AII6CxEF3rXrhjEriEIV-28" value="Expiration time" style="text;html=1;align=center;verticalAlign=middle;whiteSpace=wrap;rounded=0;" vertex="1" parent="AII6CxEF3rXrhjEriEIV-21">
          <mxGeometry x="45" y="200" width="110" height="40" as="geometry" />
        </mxCell>
        <mxCell id="AII6CxEF3rXrhjEriEIV-29" value="" style="endArrow=none;html=1;rounded=0;exitX=0;exitY=0.5;exitDx=0;exitDy=0;entryX=1;entryY=0.5;entryDx=0;entryDy=0;" edge="1" parent="AII6CxEF3rXrhjEriEIV-21">
          <mxGeometry width="50" height="50" relative="1" as="geometry">
            <mxPoint y="120" as="sourcePoint" />
            <mxPoint x="200" y="120" as="targetPoint" />
          </mxGeometry>
        </mxCell>
        <mxCell id="AII6CxEF3rXrhjEriEIV-30" value="" style="endArrow=none;html=1;rounded=0;exitX=0;exitY=0.5;exitDx=0;exitDy=0;entryX=1;entryY=0.5;entryDx=0;entryDy=0;" edge="1" parent="AII6CxEF3rXrhjEriEIV-21">
          <mxGeometry width="50" height="50" relative="1" as="geometry">
            <mxPoint y="199.43" as="sourcePoint" />
            <mxPoint x="200" y="199.43" as="targetPoint" />
          </mxGeometry>
        </mxCell>
        <mxCell id="AII6CxEF3rXrhjEriEIV-31" value="AOMDV" style="text;html=1;align=center;verticalAlign=middle;whiteSpace=wrap;rounded=0;" vertex="1" parent="1">
          <mxGeometry x="190" y="500" width="60" height="30" as="geometry" />
        </mxCell>
        <mxCell id="AII6CxEF3rXrhjEriEIV-32" value="PUF-AOMDV" style="text;html=1;align=center;verticalAlign=middle;whiteSpace=wrap;rounded=0;" vertex="1" parent="1">
          <mxGeometry x="455" y="500" width="90" height="30" as="geometry" />
        </mxCell>
      </root>
    </mxGraphModel>
  </diagram>
</mxfile>
